<!DOCTYPE svg PUBLIC "-//W3C//DTD SVG 20010904//EN" "http://www.w3.org/TR/2001/REC-SVG-20010904/DTD/svg10.dtd"[]><svg version="1.0" xmlns="http://www.w3.org/2000/svg" width="92" height="120" viewBox="0 0 128.000000 128.000000" preserveAspectRatio="xMidYMid meet"><g transform="translate(0.000000,128.000000) scale(0.100000,-0.100000)" fill="#000000" stroke="none"><path d="M20 1260 c-19 -19 -20 -33 -20 -514 l0 -495 26 -20 c25 -20 40 -21 215 -21 104 0 189 -2 189 -5 0 -2 -8 -20 -17 -40 -16 -33 -20 -35 -63 -35 -61 0 -90 -21 -90 -65 0 -64 4 -65 380 -65 376 0 380 1 380 65 0 44 -29 65 -90 65 -43 0 -47 2 -63 35 -9 20 -17 38 -17 40 0 3 86 5 190 5 189 0 191 0 215 25 l25 24 0 491 c0 477 -1 491 -20 510 -20 20 -33 20 -620 20 -587 0 -600 0 -620 -20z m1209 -34 c8 -9 10 -130 9 -427 l-3 -414 -595 0 -595 0 -3 414 c-1 297 1 418 9 427 17 21 1161 21 1178 0z m9 -923 l-3 -38 -595 0 -595 0 -3 38 -3 37 601 0 601 0 -3 -37z m-418 -133 l20 -40 -200 0 -200 0 20 40 20 40 160 0 160 0 20 -40z m149 -89 c8 -5 11 -16 8 -25 -6 -14 -43 -16 -337 -16 -294 0 -331 2 -337 16 -3 9 0 20 8 25 18 11 640 11 658 0z" /><path d="M287 1162 c-15 -15 -27 -37 -27 -48 0 -31 47 -92 88 -113 20 -11 71 -54 112 -95 l75 -76 -52 -51 c-39 -40 -59 -52 -87 -55 -77 -7 -136 -68 -136 -141 0 -65 38 -83 80 -38 44 47 77 23 36 -26 -43 -51 -30 -89 32 -89 76 0 142 61 142 132 0 27 9 43 43 76 23 23 45 42 49 42 3 0 8 -10 12 -23 3 -13 53 -69 110 -125 94 -92 108 -102 142 -102 53 0 114 62 114 115 0 35 -9 47 -102 142 -57 57 -113 106 -125 109 -32 8 -29 19 17 64 32 32 48 40 76 40 71 0 134 64 134 136 0 68 -36 83 -89 38 -49 -41 -73 -8 -26 36 45 43 27 80 -39 80 -72 0 -136 -62 -136 -130 0 -30 -9 -44 -53 -88 l-53 -52 -85 88 c-48 48 -89 95 -92 104 -8 24 -86 78 -112 78 -12 0 -33 -13 -48 -28z m120 -73 c6 -12 67 -77 134 -145 107 -107 121 -125 109 -139 -12 -14 -28 -1 -140 110 -70 69 -134 125 -143 125 -9 0 -28 17 -41 37 -24 34 -24 38 -9 55 15 17 17 17 47 -1 17 -11 36 -30 43 -42z m449 30 c-31 -37 -32 -49 -6 -82 33 -42 57 -44 96 -6 l34 33 0 -28 c0 -19 -12 -40 -34 -62 -28 -28 -41 -34 -78 -34 -39 0 -49 -5 -92 -49 -51 -52 -70 -55 -102 -20 -17 19 -16 22 39 77 47 47 57 64 57 92 1 60 43 109 93 110 17 0 16 -4 -7 -31z m-129 -335 c3 -10 -4 -26 -20 -42 -22 -22 -28 -23 -42 -12 -14 12 -13 16 11 42 32 32 42 35 51 12z m-139 -6 c24 -30 17 -56 -30 -106 -41 -44 -48 -57 -48 -93 0 -33 -6 -47 -34 -75 -19 -19 -44 -34 -56 -34 -22 0 -21 0 4 31 33 39 33 54 -3 90 -36 36 -51 36 -90 3 -25 -21 -31 -23 -31 -9 0 52 51 95 113 95 26 0 43 11 87 55 56 57 70 64 88 43z m389 -226 c6 -26 -39 -82 -67 -82 -8 0 -60 45 -115 100 l-99 100 44 45 44 45 94 -92 c51 -51 95 -103 99 -116z" /></g></svg>