<!DOCTYPE svg PUBLIC "-//W3C//DTD SVG 20010904//EN" "http://www.w3.org/TR/2001/REC-SVG-20010904/DTD/svg10.dtd"[]><svg version="1.0" xmlns="http://www.w3.org/2000/svg" width="92" height="120" viewBox="0 0 512.000000 512.000000" preserveAspectRatio="xMidYMid meet"><g transform="translate(0.000000,512.000000) scale(0.100000,-0.100000)" fill="#000000" stroke="none"><path d="M615 4591 c-48 -22 -69 -44 -90 -94 -13 -32 -15 -207 -15 -1514 0 -1477 0 -1477 21 -1520 11 -23 35 -53 52 -65 l32 -23 673 -3 672 -2 0 -175 0 -175 -158 0 c-150 0 -161 -1 -210 -26 -65 -32 -108 -84 -129 -153 -29 -101 0 -197 79 -265 79 -68 45 -66 1018 -66 973 0 939 -2 1018 66 138 118 112 337 -50 418 -49 25 -60 26 -210 26 l-158 0 0 175 0 175 661 0 c742 0 707 -3 757 73 l27 41 3 1480 c2 1010 0 1492 -8 1517 -14 51 -47 88 -94 110 -39 18 -113 19 -1946 19 -1827 0 -1907 -1 -1945 -19z m3825 -1346 l0 -1195 -1880 0 -1880 0 0 1195 0 1195 1880 0 1880 0 0 -1195z m0 -1535 l0 -170 -1880 0 -1880 0 0 170 0 170 1880 0 1880 0 0 -170z m-1455 -515 l0 -170 -425 0 -425 0 -3 160 c-1 87 0 165 2 172 4 11 89 13 428 11 l423 -3 0 -170z m485 -365 c43 -43 34 -110 -20 -137 -36 -18 -1744 -18 -1780 0 -54 27 -63 94 -20 137 20 20 37 20 910 20 873 0 890 0 910 -20z" /><path d="M994 4260 c-54 -22 -54 -18 -54 -507 l0 -452 24 -28 24 -28 1572 0 1572 0 24 28 24 28 0 454 0 454 -24 28 -24 28 -1559 2 c-865 1 -1568 -2 -1579 -7z m3016 -505 l0 -345 -1450 0 -1450 0 0 345 0 345 1450 0 1450 0 0 -345z" /><path d="M1528 3902 c-100 -100 -108 -111 -108 -147 0 -36 8 -47 108 -147 92 -92 113 -108 139 -108 48 0 87 38 87 84 0 32 -9 45 -67 104 l-67 67 67 67 c58 59 67 72 67 104 0 46 -40 84 -87 84 -26 0 -47 -16 -139 -108z" /><path d="M3394 3986 c-21 -18 -28 -32 -28 -60 0 -32 9 -45 67 -104 l67 -67 -67 -67 c-58 -59 -67 -72 -67 -104 0 -45 40 -84 86 -84 26 0 48 17 134 101 57 56 107 114 112 129 15 42 -6 76 -115 183 -112 108 -137 118 -189 73z" /><path d="M1053 3046 l-28 -24 0 -377 0 -377 28 -24 28 -24 369 0 369 0 28 24 28 24 3 370 3 370 -27 31 -26 31 -373 0 -374 0 -28 -24z m657 -401 l0 -255 -260 0 -260 0 0 255 0 255 260 0 260 0 0 -255z" /><path d="M2075 2875 c-42 -41 -31 -105 22 -133 30 -16 1925 -17 1955 -1 29 15 50 72 39 103 -23 59 35 56 -1024 56 l-968 0 -24 -25z" /><path d="M2095 2548 c-52 -28 -62 -92 -20 -133 l24 -25 970 0 970 0 26 23 c38 32 38 92 0 124 l-26 23 -962 0 c-677 -1 -968 -4 -982 -12z" /></g></svg>