<?xml version="1.0" standalone="no"?>
<!DOCTYPE svg PUBLIC "-//W3C//DTD SVG 20010904//EN"
 "http://www.w3.org/TR/2001/REC-SVG-20010904/DTD/svg10.dtd">
<svg version="1.0" xmlns="http://www.w3.org/2000/svg"
 width="500.000000pt" height="500.000000pt" viewBox="0 0 500.000000 500.000000"
 preserveAspectRatio="xMidYMid meet">

<g transform="translate(0.000000,500.000000) scale(0.100000,-0.100000)"
fill="#000000" stroke="none">
<path d="M0 2500 l0 -2500 2500 0 2500 0 0 2500 0 2500 -2500 0 -2500 0 0
-2500z m1700 1156 c0 -26 -21 -47 -28 -28 -2 7 -17 12 -33 12 -22 0 -29 -5
-29 -19 0 -15 8 -21 33 -23 20 -2 32 -8 32 -18 0 -10 -12 -16 -32 -18 -27 -3
-33 -7 -33 -28 0 -20 5 -24 30 -24 17 0 30 5 30 10 0 6 7 10 15 10 9 0 15 -9
15 -25 0 -24 -2 -25 -75 -25 -60 0 -75 3 -75 15 0 8 5 15 10 15 6 0 10 30 10
70 0 40 -4 70 -10 70 -5 0 -10 7 -10 15 0 12 15 15 75 15 73 0 75 -1 75 -24z
m109 -42 l51 -67 0 52 c0 28 -4 51 -10 51 -5 0 -10 7 -10 15 0 11 11 15 40 15
29 0 40 -4 40 -15 0 -8 -4 -15 -10 -15 -6 0 -10 -35 -10 -85 0 -74 -2 -85 -17
-85 -10 1 -39 28 -65 62 l-48 61 0 -46 c0 -25 5 -49 10 -52 22 -13 8 -25 -30
-25 -29 0 -40 4 -40 15 0 8 5 15 10 15 6 0 10 30 10 70 0 40 -4 70 -10 70 -5
0 -10 7 -10 15 0 9 9 15 24 15 17 0 37 -17 75 -66z m269 60 c16 -5 22 -14 22
-35 0 -31 -17 -39 -26 -14 -9 23 -81 20 -94 -4 -29 -54 3 -115 57 -109 34 4
43 33 12 41 -29 8 -14 27 22 27 28 0 29 -2 29 -44 0 -50 -8 -56 -75 -56 -36 0
-48 5 -69 31 -44 52 -29 136 28 159 25 10 63 12 94 4z m116 -3 c3 -5 -1 -14
-9 -21 -21 -18 -21 -136 0 -144 30 -11 14 -26 -30 -26 -42 0 -58 11 -35 25 6
3 10 37 10 75 0 38 -4 72 -10 75 -5 3 -10 10 -10 16 0 12 77 12 84 0z m112
-56 l49 -66 3 47 c2 35 -1 50 -13 56 -23 14 -8 28 30 28 34 0 54 -14 35 -25
-5 -3 -10 -44 -10 -91 0 -75 -2 -84 -19 -84 -11 0 -39 27 -70 67 l-51 67 0
-51 c0 -36 4 -53 15 -57 29 -11 15 -26 -25 -26 -29 0 -40 4 -40 15 0 8 5 15
10 15 6 0 10 30 10 70 0 40 -4 70 -10 70 -5 0 -10 7 -10 15 0 9 9 15 23 15 17
0 37 -18 73 -65z m264 35 c0 -16 -4 -30 -10 -30 -5 0 -10 5 -10 10 0 6 -13 10
-30 10 -23 0 -30 -4 -30 -20 0 -16 7 -20 30 -20 23 0 30 -4 30 -20 0 -16 -7
-20 -30 -20 -25 0 -30 -4 -30 -25 0 -21 5 -25 30 -25 17 0 30 5 30 10 0 6 5
10 10 10 6 0 10 -11 10 -25 0 -24 -2 -25 -70 -25 -56 0 -70 3 -70 15 0 8 5 15
10 15 6 0 10 30 10 70 0 40 -4 70 -10 70 -5 0 -10 7 -10 15 0 12 14 15 70 15
l70 0 0 -30z m160 0 c0 -16 -4 -30 -10 -30 -5 0 -10 5 -10 10 0 6 -13 10 -30
10 -23 0 -30 -4 -30 -20 0 -16 7 -20 30 -20 23 0 30 -4 30 -20 0 -16 -7 -20
-30 -20 -25 0 -30 -4 -30 -25 0 -21 5 -25 30 -25 17 0 30 5 30 10 0 6 5 10 10
10 6 0 10 -11 10 -25 0 -24 -2 -25 -70 -25 -56 0 -70 3 -70 15 0 8 5 15 10 15
6 0 10 30 10 70 0 40 -4 70 -10 70 -5 0 -10 7 -10 15 0 12 14 15 70 15 l70 0
0 -30z m148 14 c26 -18 29 -60 6 -85 -12 -14 -13 -22 -5 -38 14 -24 47 -44 61
-36 13 8 13 142 0 150 -22 13 -8 25 29 25 45 0 58 -12 36 -30 -21 -18 -21
-136 0 -144 37 -14 10 -26 -57 -26 -72 0 -73 1 -96 35 -12 19 -27 35 -32 35
-13 0 -13 -37 0 -45 22 -13 8 -25 -30 -25 -29 0 -40 4 -40 15 0 8 5 15 10 15
6 0 10 30 10 70 0 40 -4 70 -10 70 -5 0 -10 7 -10 15 0 21 98 21 128 -1z m248
-49 l49 -66 3 47 c2 35 -1 50 -13 56 -23 14 -8 28 30 28 34 0 54 -14 35 -25
-5 -3 -10 -44 -10 -91 0 -75 -2 -84 -19 -84 -11 0 -39 27 -70 67 l-51 67 0
-51 c0 -36 4 -53 15 -57 29 -11 15 -26 -25 -26 -29 0 -40 4 -40 15 0 8 5 15
10 15 6 0 10 30 10 70 0 40 -4 70 -10 70 -5 0 -10 7 -10 15 0 9 9 15 23 15 17
0 37 -18 73 -65z m272 59 c16 -5 22 -14 22 -35 0 -31 -17 -39 -26 -14 -7 18
-74 21 -92 3 -17 -17 -15 -78 5 -100 23 -26 73 -24 73 2 0 11 -7 20 -15 20 -8
0 -15 7 -15 15 0 10 11 15 35 15 35 0 35 0 35 -44 0 -50 -8 -56 -74 -56 -52 0
-82 21 -94 64 -26 92 47 156 146 130z m25 -250 l27 -26 2 -549 c2 -302 1 -590
-2 -639 -5 -80 -9 -93 -36 -126 -61 -76 -73 -79 -396 -82 l-288 -3 0 -94 0
-93 213 -4 c195 -3 215 -5 253 -25 75 -40 124 -117 124 -193 l0 -40 -100 0
-100 0 0 -59 c0 -51 3 -62 22 -75 12 -9 33 -16 46 -16 26 0 82 -50 82 -73 0
-10 16 -16 57 -19 49 -4 60 -9 90 -42 l34 -37 -3 -162 c-3 -153 -4 -164 -28
-199 -40 -59 -94 -88 -161 -88 -69 0 -104 12 -143 48 -54 51 -66 92 -66 245 0
155 8 184 63 217 18 12 50 20 75 20 29 0 42 4 42 14 0 20 -19 32 -67 45 -60
16 -83 50 -83 122 l0 59 -700 0 -700 0 0 40 c0 76 49 153 124 193 38 20 58 22
254 25 l212 4 0 93 0 94 -287 3 c-324 3 -336 6 -397 82 -27 33 -31 46 -36 126
-3 50 -4 337 -2 639 l2 549 27 26 26 26 897 0 897 0 26 -26z m87 16 c0 -6 30
-10 70 -10 40 0 70 4 70 10 0 6 7 10 15 10 25 0 20 -101 -6 -134 -38 -48 -109
-20 -109 44 0 23 -5 30 -19 30 -11 0 -23 -4 -26 -10 -13 -22 -25 -8 -25 30 0
29 4 40 15 40 8 0 15 -4 15 -10z m133 -180 c54 -43 43 -138 -18 -167 -73 -35
-145 11 -145 92 0 36 5 48 31 69 38 33 95 35 132 6z m-138 -200 c3 -5 37 -10
76 -10 39 0 69 4 69 10 0 6 7 10 16 10 25 0 15 -127 -11 -146 -26 -19 -52 -17
-74 5 -18 18 -21 18 -43 3 -12 -9 -27 -22 -31 -29 -13 -21 -27 -15 -27 12 0
17 10 32 35 47 39 25 46 48 15 48 -11 0 -20 -4 -20 -10 0 -5 -7 -10 -15 -10
-11 0 -15 11 -15 40 0 38 12 52 25 30z m-1985 -115 c0 -44 0 -44 -30 -38 l-30
6 0 -53 0 -52 30 6 c30 5 30 5 30 -39 0 -43 -15 -60 -26 -31 -3 7 -50 31 -105
52 -89 35 -99 41 -99 64 0 23 9 29 90 59 49 18 99 42 111 52 12 10 24 19 26
19 1 0 3 -20 3 -45z m2160 -145 c0 -78 0 -80 -25 -80 -22 0 -24 3 -18 30 l6
30 -67 0 c-37 0 -66 -4 -66 -10 0 -5 -7 -10 -15 -10 -11 0 -15 11 -15 40 0 38
12 52 25 30 3 -5 36 -10 72 -10 l66 0 -6 30 c-6 27 -4 30 18 30 25 0 25 -2 25
-80z m-2360 -89 c0 -14 115 -81 139 -81 12 0 24 7 27 15 4 8 12 15 20 15 10 0
14 -14 14 -50 0 -48 -14 -67 -26 -35 -4 8 -17 15 -31 15 -30 0 -132 -56 -140
-76 -3 -8 -11 -14 -19 -14 -10 0 -14 13 -14 45 0 44 7 54 26 35 6 -6 21 -1 43
12 l33 21 -33 18 c-21 11 -38 14 -43 8 -19 -18 -26 -8 -26 36 0 33 4 45 15 45
8 0 15 -4 15 -9z m2185 -11 c3 -5 37 -10 75 -10 38 0 72 5 75 10 16 27 25 3
25 -70 l0 -80 -30 0 c-29 0 -40 13 -20 25 6 3 10 22 10 41 0 30 -3 34 -25 34
-22 0 -25 -4 -25 -35 0 -24 -5 -35 -15 -35 -10 0 -15 11 -15 35 0 30 -3 35
-24 35 -13 0 -26 -7 -30 -15 -11 -30 -26 -14 -26 30 0 42 11 58 25 35z m138
-180 c54 -43 43 -138 -18 -167 -73 -35 -145 11 -145 92 0 36 5 48 31 69 38 33
95 35 132 6z m-2327 -45 c5 -11 23 -15 79 -15 63 0 76 -3 99 -25 36 -34 37
-105 1 -140 -21 -22 -33 -25 -98 -25 -57 0 -76 -4 -81 -15 -12 -32 -26 -13
-26 35 0 38 4 50 15 50 8 0 15 -7 15 -16 0 -14 11 -16 71 -12 74 4 89 13 89
55 0 34 -37 53 -102 53 -45 0 -58 -3 -58 -15 0 -8 -7 -15 -15 -15 -11 0 -15
12 -15 50 0 48 14 67 26 35z m2194 -155 c0 -6 30 -10 70 -10 40 0 70 4 70 10
0 6 7 10 15 10 11 0 15 -11 15 -40 0 -29 -4 -40 -15 -40 -8 0 -15 5 -15 10 0
6 -30 10 -70 10 l-70 0 0 -30 c0 -16 5 -30 10 -30 6 0 10 -4 10 -10 0 -5 -11
-10 -25 -10 -24 0 -25 2 -25 70 0 56 3 70 15 70 8 0 15 -4 15 -10z m-2190
-103 c0 -17 111 -77 143 -77 14 0 27 7 31 15 12 32 26 13 26 -35 0 -36 -4 -50
-14 -50 -8 0 -16 7 -20 15 -3 8 -15 15 -27 15 -24 0 -139 -67 -139 -81 0 -5
-7 -9 -15 -9 -11 0 -15 12 -15 45 0 44 7 54 26 36 5 -6 22 -3 43 8 l33 18 -36
21 c-20 12 -36 17 -36 12 0 -6 -7 -10 -15 -10 -11 0 -15 12 -15 45 0 33 4 45
15 45 8 0 15 -6 15 -13z m2190 -57 c0 -6 30 -10 70 -10 40 0 70 4 70 10 0 6 7
10 15 10 11 0 15 -11 15 -40 0 -29 -4 -40 -15 -40 -8 0 -15 5 -15 10 0 6 -30
10 -69 10 -39 0 -73 -4 -76 -10 -13 -22 -25 -8 -25 30 0 29 4 40 15 40 8 0 15
-4 15 -10z m133 -100 c54 -43 43 -138 -18 -167 -73 -35 -145 11 -145 92 0 36
5 48 31 69 38 33 95 35 132 6z"/>
<path d="M2810 3621 c0 -26 4 -31 25 -31 20 0 25 5 25 25 0 14 -4 25 -9 25 -5
0 -16 3 -25 6 -13 5 -16 -1 -16 -25z"/>
<path d="M1622 3378 c-9 -9 -12 -139 -12 -525 l0 -513 890 0 890 0 0 513 c0
386 -3 516 -12 525 -17 17 -1739 17 -1756 0z m1186 -103 c49 -21 81 -52 103
-100 17 -36 19 -71 19 -380 0 -252 -3 -344 -12 -353 -19 -19 -821 -17 -837 2
-9 10 -11 114 -9 382 l3 369 24 34 c42 58 56 60 379 61 242 0 299 -3 330 -15z"/>
<path d="M2250 2920 l0 -300 305 0 305 0 0 251 c0 370 21 349 -349 349 l-261
0 0 -300z m475 75 l0 -90 -175 0 -175 0 -3 79 c-2 44 -1 85 2 93 5 11 40 13
178 11 l173 -3 0 -90z"/>
<path d="M2440 3000 l0 -30 110 0 110 0 0 30 0 30 -110 0 -110 0 0 -30z"/>
<path d="M2158 3190 c-16 -22 -18 -54 -18 -307 0 -156 3 -283 8 -283 31 1 32
17 30 316 -3 288 -4 298 -20 274z"/>
<path d="M2173 2525 l-28 -24 358 -1 357 0 0 25 0 25 -329 0 -330 0 -28 -25z"/>
<path d="M1610 2222 c0 -60 26 -110 71 -134 32 -17 78 -18 819 -18 741 0 787
1 819 18 45 24 71 74 71 134 l0 48 -890 0 -890 0 0 -48z m985 -42 c11 -34 -3
-40 -95 -40 -69 0 -89 3 -94 15 -14 37 3 45 94 45 80 0 89 -2 95 -20z"/>
<path d="M2340 1905 l0 -95 160 0 160 0 0 95 0 95 -160 0 -160 0 0 -95z"/>
<path d="M1833 1719 c-39 -19 -83 -71 -83 -98 0 -8 198 -11 750 -11 552 0 750
3 750 11 0 27 -44 79 -84 98 -41 21 -56 21 -667 21 -613 0 -625 0 -666 -21z"/>
<path d="M3115 1245 c-17 -16 -25 -35 -25 -60 l0 -35 70 0 70 0 0 60 0 60 -45
0 c-35 0 -52 -6 -70 -25z"/>
<path d="M3270 1210 l0 -61 73 3 72 3 -3 35 c-3 50 -40 80 -98 80 l-44 0 0
-60z"/>
<path d="M3090 1031 c0 -49 5 -102 10 -116 l10 -27 38 24 c51 32 151 33 204 1
l38 -22 12 22 c6 12 12 63 12 112 l1 90 -162 3 -163 2 0 -89z"/>
<path d="M3173 883 c-18 -9 -33 -21 -33 -25 0 -5 21 -18 46 -30 52 -22 107
-19 150 8 33 22 30 32 -11 50 -45 18 -111 17 -152 -3z"/>
<path d="M3582 3369 c4 -27 33 -48 47 -34 5 6 12 20 16 33 6 20 3 22 -30 22
-32 0 -36 -3 -33 -21z"/>
<path d="M3524 3214 c-38 -57 32 -119 91 -80 32 21 36 80 6 96 -36 19 -79 12
-97 -16z"/>
<path d="M3590 2985 c0 -33 28 -45 46 -20 22 30 17 45 -16 45 -25 0 -30 -4
-30 -25z"/>
<path d="M1383 2878 c-42 -14 -41 -21 0 -36 46 -16 47 -16 47 18 0 33 0 33
-47 18z"/>
<path d="M3524 2474 c-38 -57 32 -119 91 -80 32 21 36 80 6 96 -36 19 -79 12
-97 -16z"/>
<path d="M3524 2014 c-38 -57 32 -119 91 -80 32 21 36 80 6 96 -36 19 -79 12
-97 -16z"/>
</g>
</svg>
